<?xml version="1.0" encoding="UTF-8"?>
<svg height="128px" viewBox="0 0 128 128" width="128px" xmlns="http://www.w3.org/2000/svg" xmlns:xlink="http://www.w3.org/1999/xlink">
    <linearGradient id="a" gradientTransform="matrix(0.232143 0 0 0.342105 -8.566925 269.740062)" gradientUnits="userSpaceOnUse" x1="88.595886" x2="536.595886" y1="-449.394012" y2="-449.394012">
        <stop offset="0" stop-color="#1a5fb4"/>
        <stop offset="0.0384615" stop-color="#62a0ea"/>
        <stop offset="0.0768555" stop-color="#1a5fb4"/>
        <stop offset="0.923077" stop-color="#1a5fb4"/>
        <stop offset="0.961538" stop-color="#62a0ea"/>
        <stop offset="1" stop-color="#1a5fb4"/>
    </linearGradient>
    <path d="m 20 12 h 88 c 4.417969 0 8 3.726562 8 8.320312 v 87.359376 c 0 4.59375 -3.582031 8.320312 -8 8.320312 h -88 c -4.417969 0 -8 -3.726562 -8 -8.320312 v -87.359376 c 0 -4.59375 3.582031 -8.320312 8 -8.320312 z m 0 0" fill="url(#a)"/>
    <path d="m 20 12 h 88 c 4.417969 0 8 3.4375 8 7.679688 v 80.640624 c 0 4.242188 -3.582031 7.679688 -8 7.679688 h -88 c -4.417969 0 -8 -3.4375 -8 -7.679688 v -80.640624 c 0 -4.242188 3.582031 -7.679688 8 -7.679688 z m 0 0" fill="#62a0ea"/>
    <path d="m 23.382812 16 h 81.234376 c 4.078124 0 7.382812 3.152344 7.382812 7.039062 v 73.921876 c 0 3.886718 -3.304688 7.039062 -7.382812 7.039062 h -81.234376 c -4.078124 0 -7.382812 -3.152344 -7.382812 -7.039062 v -73.921876 c 0 -3.886718 3.304688 -7.039062 7.382812 -7.039062 z m 0 0" fill="#001e36"/>
    <g fill="#62a0ea">
        <path d="m 82.515625 87.136719 c 9.8125 0 15.25 -4.6875 15.25 -12.109375 c 0 -13.59375 -18.296875 -9.484375 -18.296875 -14.984375 c 0 -1.859375 2.078125 -2.875 5.703125 -2.875 c 3 0 6.296875 0.53125 8.90625 1.4375 l 2.5625 -7.359375 c -3.09375 -1.390625 -7.1875 -2.1875 -10.984375 -2.1875 c -9.390625 0 -15.78125 4.90625 -15.78125 12.375 c 0 12.59375 18.1875 9.015625 18.1875 14.71875 c 0 1.703125 -1.609375 2.671875 -5.171875 2.671875 c -3.359375 0 -7.421875 -0.640625 -11.09375 -2.1875 l -2.5625 7.5625 c 3.78125 1.71875 8.6875 2.9375 13.28125 2.9375 z m -14.828125 -52.957031"/>
        <path d="m 32 66.3125 h 9.710938 v 9.710938 h -9.710938 z m 0 0"/>
        <path d="m 32 77.457031 h 9.710938 v 9.710938 h -9.710938 z m 0 0"/>
        <path d="m 32 55.167969 h 9.710938 v 9.710937 h -9.710938 z m 0 0"/>
        <path d="m 32 44.023438 h 9.710938 v 9.710937 h -9.710938 z m 0 0"/>
        <path d="m 32 32.878906 h 9.710938 v 9.714844 h -9.710938 z m 0 0"/>
        <path d="m 43.144531 32.832031 h 9.710938 v 9.710938 h -9.710938 z m 0 0"/>
        <path d="m 54.289062 32.832031 h 9.710938 v 9.710938 h -9.710938 z m 0 0"/>
        <path d="m 54.289062 55.21875 h 9.710938 v 9.710938 h -9.710938 z m 0 0"/>
        <path d="m 54.289062 44.023438 h 9.710938 v 9.710937 h -9.710938 z m 0 0"/>
        <path d="m 43.144531 55.167969 h 9.710938 v 9.710937 h -9.710938 z m 0 0"/>
    </g>
</svg>
